<?xml version="1.0" encoding="utf-8"?>
<!-- Generator: Adobe Illustrator 24.0.0, SVG Export Plug-In . SVG Version: 6.00 Build 0)  -->
<svg version="1.1" id="Capa_1" xmlns="http://www.w3.org/2000/svg" xmlns:xlink="http://www.w3.org/1999/xlink" x="0px" y="0px"
	 viewBox="0 0 542 227" style="enable-background:new 0 0 542 227;" xml:space="preserve">
<style type="text/css">
	.st0{fill:#FF0000;}
	.st1{fill:#F0F1EE;}
	.st2{fill:#B20008;}
	.st3{fill:#F7F7F7;}
</style>
<g>
	<path class="st0" d="M99.07,162.52l55.01,34.95l-34.34,23.97h-61.5L99.07,162.52z"/>
	<path class="st1" d="M122.43,219.29l-4.42,2.25l16.44-35.39l15.38,9.01L122.43,219.29z"/>
	<path class="st0" d="M57.58,12.06L91.2,39.02h10.25l0.99,76.89L40.29,63.99l17.29-27.13V12.06z"/>
	<path class="st0" d="M25.21,131.61L7.82,178.52l52.67,44.49l36.92-63.98L25.21,131.61z"/>
	<path class="st2" d="M23.11,133.01L7.68,178.98l54.5,46.32L23.11,133.01z"/>
	<path class="st0" d="M113.54,158.92l27.63-76.88l-38.51,31.86L68.11,84.16l28.47,73.31L113.54,158.92z"/>
	<path class="st2" d="M102.86,115.84v43.3l-6.29-1.67L66.86,86.54L102.86,115.84z"/>
	<path class="st0" d="M67.45,93.9l26.97,65.02l-70.05-28.88L67.45,93.9z"/>
	<path class="st0" d="M103.23,159.64l50.86,35.52h35.01l-36.68-34.25L103.23,159.64z"/>
	<path class="st1" d="M167.05,174.24l18.06,17.19l-32.69-0.15l-14.64-9.38L167.05,174.24z"/>
	<path class="st0" d="M148.85,9.93v24.79l16.11,25.31l-58.93,53.74l-4.57-76.89h15.71L148.85,9.93z"/>
	<path class="st1" d="M50.73,47.91l51.44,58.59l-0.9,4.32L41.3,62.98L50.73,47.91z"/>
	<path class="st3" d="M154.22,47.91l-51.45,58.59l0.9,4.32l59.97-47.83L154.22,47.91z"/>
	<path d="M102.31,118.43l-67.5-56.06l17.54-26.73V2.59l39.93,30.93h20.01l40.03-31.09l-0.08,33.21l17.46,26.72L102.31,118.43z
		 M42.84,61.17l59.48,49.39l59.38-49.39l-15.51-23.72l0.05-22.62l-31.85,24.74H90.21l-31.8-24.64v22.52L42.84,61.17z"/>
	<path d="M105.34,34.95h-6.06V114h6.06V34.95z"/>
	<path d="M123.14,225.27h-63.8l-57-47.4L20.5,129.9l47.02-44.78l30.25,71.67h57.15l44.57,40.28H154.9L123.14,225.27z M61.53,219.23
		h59.31l31.75-28.2h31.19l-31.2-28.2H93.74l-28.4-67.29l-39.67,37.78L9.52,175.99L61.53,219.23z"/>
	<path d="M138.32,81.24l-28.25,77.54l5.69,2.06l28.25-77.54L138.32,81.24z"/>
	<path d="M24.67,128.3l-2.16,5.65l71.32,27.13l2.16-5.65L24.67,128.3z"/>
	<path d="M94.45,159.29L57.82,220.7l5.2,3.09l36.62-61.42L94.45,159.29z"/>
	<path d="M101.3,157.3l-3.36,5.03l51.86,34.5l3.36-5.03L101.3,157.3z"/>
	<path d="M195.85,103.93l1.45,2.02v-5.93L195.85,103.93z"/>
	<path d="M234.07,99.65v5l0.51-0.73L234.07,99.65z"/>
	<path d="M217.65,120.82l-2.08-2.95l-1.55,2.15L217.65,120.82z"/>
	<path d="M242.5,93.48V80.59h-0.15l-26.79,37.29l2.08,2.95l-3.63-0.8l1.55-2.15l-26.4-37.29h-0.07v54.66h8.21v-29.3l-1.45-2.02
		l1.45-3.91v5.93l18.02,25.02h0.15L242.5,93.48z"/>
	<path d="M234.07,116.99v18.26h8.43v-29.47L234.07,116.99z"/>
	<path d="M259.21,108.93c0-3.62,0.7-7.07,2.11-10.33c1.4-3.26,3.34-6.15,5.81-8.66c2.47-2.51,5.33-4.48,8.57-5.91
		c3.25-1.43,6.76-2.14,10.54-2.14c3.68,0,7.16,0.71,10.43,2.14c3.27,1.43,6.16,3.4,8.68,5.91c2.52,2.51,4.48,5.4,5.89,8.66
		c1.4,3.26,2.11,6.71,2.11,10.33c0,3.72-0.7,7.2-2.11,10.44c-1.4,3.24-3.38,6.1-5.92,8.59c-2.54,2.49-5.44,4.42-8.68,5.8
		c-3.25,1.38-6.73,2.07-10.46,2.07s-7.22-0.69-10.46-2.07c-3.25-1.38-6.1-3.29-8.57-5.73s-4.41-5.29-5.81-8.55
		C259.91,116.22,259.21,112.7,259.21,108.93z M267.93,108.86c0,2.66,0.47,5.12,1.42,7.39c0.94,2.27,2.26,4.27,3.96,5.98
		c1.7,1.72,3.67,3.06,5.92,4.02c2.25,0.97,4.66,1.45,7.23,1.45c2.57,0,4.95-0.48,7.16-1.45c2.2-0.97,4.12-2.31,5.74-4.02
		c1.62-1.72,2.91-3.71,3.85-5.98c0.94-2.27,1.42-4.71,1.42-7.32c0-2.66-0.48-5.12-1.45-7.39c-0.97-2.27-2.28-4.28-3.92-6.02
		c-1.65-1.74-3.58-3.09-5.81-4.06c-2.23-0.97-4.63-1.45-7.19-1.45c-2.57,0-4.96,0.5-7.19,1.49c-2.23,0.99-4.18,2.34-5.85,4.06
		c-1.67,1.72-2.97,3.72-3.89,6.02C268.39,103.87,267.93,106.3,267.93,108.86z"/>
	<path d="M344.51,82.47c5.38,0,9.63,1.09,12.75,3.26s4.69,5.51,4.69,10c0,3-0.7,5.55-2.11,7.65c-1.4,2.1-3.33,3.72-5.77,4.86
		c-2.45,1.14-5.32,1.73-8.61,1.78l-1.24-4.42c3.88,0.05,7.33,0.66,10.36,1.85c3.03,1.18,5.45,2.85,7.27,5
		c1.82,2.15,2.73,4.72,2.73,7.72c0,2.71-0.51,5.01-1.53,6.92c-1.02,1.91-2.37,3.47-4.07,4.68c-1.69,1.21-3.62,2.09-5.77,2.65
		c-2.16,0.56-4.35,0.83-6.58,0.83h-16.57V82.47H344.51z M345.89,104.95c2.52,0,4.37-0.74,5.56-2.21c1.19-1.47,1.78-3.23,1.78-5.26
		c0-2.32-0.75-4.05-2.25-5.18c-1.5-1.14-3.53-1.7-6.1-1.7h-6.32v14.35H345.89z M346.18,127.42c1.79,0,3.42-0.27,4.87-0.8
		c1.45-0.53,2.62-1.33,3.49-2.39c0.87-1.06,1.31-2.42,1.31-4.06c0-1.84-0.51-3.26-1.53-4.28c-1.02-1.01-2.3-1.74-3.85-2.17
		c-1.55-0.44-3.17-0.65-4.87-0.65h-7.05v14.35H346.18z"/>
	<path d="M381.28,135.25V82.47h15.04c5.23,0,9.7,0.8,13.41,2.39c3.7,1.59,6.68,3.7,8.93,6.31c2.25,2.61,3.91,5.52,4.98,8.74
		s1.6,6.44,1.6,9.68c0,3.96-0.7,7.52-2.11,10.66c-1.4,3.14-3.32,5.84-5.74,8.08c-2.42,2.25-5.23,3.96-8.43,5.15
		c-3.2,1.18-6.54,1.78-10.03,1.78H381.28z M389.78,127.13h7.48c2.86,0,5.46-0.4,7.81-1.2c2.35-0.8,4.37-1.96,6.07-3.48
		c1.7-1.52,3.02-3.41,3.96-5.65c0.94-2.25,1.42-4.84,1.42-7.79c0-3.29-0.55-6.1-1.64-8.45c-1.09-2.34-2.52-4.25-4.29-5.73
		c-1.77-1.47-3.69-2.55-5.77-3.23c-2.08-0.68-4.14-1.01-6.18-1.01h-8.87V127.13z"/>
	<path d="M442.02,82.47h35.1v8.12h-26.59v14.06h23.68v8.12h-23.68v14.35h27.61v8.12h-36.11V82.47z"/>
	<path d="M500.8,82.47h-10.03l15.54,36.4l4.46-11.59L500.8,82.47z"/>
	<path d="M517.44,123.87l-2.69-6.69l-2.18,5.68L517.44,123.87z"/>
	<path d="M528.05,82.47l-17.71,45.88l3.97,9.29L538,82.47H528.05z"/>
</g>
</svg>
